<svg xmlns="http://www.w3.org/2000/svg" viewBox="0 0 48 48" fill="none">
  <defs>
    <linearGradient id="bg" x1="0" y1="0" x2="48" y2="48" gradientUnits="userSpaceOnUse">
      <stop offset="0%" stop-color="#c2410c"/>
      <stop offset="100%" stop-color="#d97706"/>
    </linearGradient>
    <linearGradient id="flame" x1="24" y1="6" x2="24" y2="22" gradientUnits="userSpaceOnUse">
      <stop offset="0%" stop-color="#fef08a"/>
      <stop offset="60%" stop-color="#fb923c"/>
      <stop offset="100%" stop-color="#dc2626"/>
    </linearGradient>
  </defs>
  <!-- Background rounded square -->
  <rect width="48" height="48" rx="12" fill="url(#bg)"/>
  <!-- Diya bowl -->
  <ellipse cx="24" cy="34" rx="11" ry="5" fill="#fde68a"/>
  <path d="M13 34 Q14 40 24 41 Q34 40 35 34 Z" fill="#fbbf24"/>
  <!-- Wick -->
  <rect x="23" y="28" width="2" height="6" rx="1" fill="#92400e"/>
  <!-- Flame outer -->
  <path d="M24 8 C20 14 18 18 20 22 C21 25 23 26 24 29 C25 26 27 25 28 22 C30 18 28 14 24 8 Z" fill="url(#flame)" opacity="0.9"/>
  <!-- Flame inner highlight -->
  <path d="M24 13 C22.5 17 22 19 23 21.5 C23.5 23 24 23.5 24 25 C24 23.5 24.5 23 25 21.5 C26 19 25.5 17 24 13 Z" fill="#fef9c3" opacity="0.7"/>
</svg>
